<svg width="40" height="40" viewBox="0 0 40 40" fill="none" xmlns="http://www.w3.org/2000/svg">
<rect width="40" height="40" rx="20" fill="#FBEFEF"/>
<path fill-rule="evenodd" clip-rule="evenodd" d="M11 20C11 19.5858 11.3358 19.25 11.75 19.25H28.25C28.6642 19.25 29 19.5858 29 20C29 20.4142 28.6642 20.75 28.25 20.75H11.75C11.3358 20.75 11 20.4142 11 20Z" fill="#B20000"/>
<path fill-rule="evenodd" clip-rule="evenodd" d="M19.0303 12.7197C19.3232 13.0126 19.3232 13.4874 19.0303 13.7803L12.8107 20L19.0303 26.2197C19.3232 26.5126 19.3232 26.9874 19.0303 27.2803C18.7374 27.5732 18.2626 27.5732 17.9697 27.2803L11.2197 20.5303C10.9268 20.2374 10.9268 19.7626 11.2197 19.4697L17.9697 12.7197C18.2626 12.4268 18.7374 12.4268 19.0303 12.7197Z" fill="#B20000"/>
</svg>
