<svg width="40" height="40" viewBox="0 0 40 40" fill="none" xmlns="http://www.w3.org/2000/svg">
<rect width="40" height="40" rx="20" fill="#FBEFEF"/>
<path d="M21.125 20C21.125 20.2225 21.059 20.44 20.9354 20.625C20.8118 20.81 20.6361 20.9542 20.4305 21.0394C20.225 21.1245 19.9988 21.1468 19.7805 21.1034C19.5623 21.06 19.3618 20.9528 19.2045 20.7955C19.0472 20.6382 18.94 20.4377 18.8966 20.2195C18.8532 20.0012 18.8755 19.775 18.9606 19.5695C19.0458 19.3639 19.19 19.1882 19.375 19.0646C19.56 18.941 19.7775 18.875 20 18.875C20.2984 18.875 20.5845 18.9935 20.7955 19.2045C21.0065 19.4155 21.125 19.7016 21.125 20ZM26 18.875C25.7775 18.875 25.56 18.941 25.375 19.0646C25.19 19.1882 25.0458 19.3639 24.9606 19.5695C24.8755 19.775 24.8532 20.0012 24.8966 20.2195C24.94 20.4377 25.0472 20.6382 25.2045 20.7955C25.3618 20.9528 25.5623 21.06 25.7805 21.1034C25.9988 21.1468 26.225 21.1245 26.4305 21.0394C26.6361 20.9542 26.8118 20.81 26.9354 20.625C27.059 20.44 27.125 20.2225 27.125 20C27.125 19.7016 27.0065 19.4155 26.7955 19.2045C26.5845 18.9935 26.2984 18.875 26 18.875ZM14 18.875C13.7775 18.875 13.56 18.941 13.375 19.0646C13.19 19.1882 13.0458 19.3639 12.9606 19.5695C12.8755 19.775 12.8532 20.0012 12.8966 20.2195C12.94 20.4377 13.0472 20.6382 13.2045 20.7955C13.3618 20.9528 13.5623 21.06 13.7805 21.1034C13.9988 21.1468 14.225 21.1245 14.4305 21.0394C14.6361 20.9542 14.8118 20.81 14.9354 20.625C15.059 20.44 15.125 20.2225 15.125 20C15.125 19.7016 15.0065 19.4155 14.7955 19.2045C14.5845 18.9935 14.2984 18.875 14 18.875Z" fill="#940000"/>
</svg>
