<svg width="18" height="18" viewBox="0 0 18 18" fill="none" xmlns="http://www.w3.org/2000/svg">
<g clip-path="url(#clip0_414_10028)">
<path fill-rule="evenodd" clip-rule="evenodd" d="M3 3.75C2.80109 3.75 2.61032 3.82902 2.46967 3.96967C2.32902 4.11032 2.25 4.30109 2.25 4.5V15C2.25 15.1989 2.32902 15.3897 2.46967 15.5303C2.61032 15.671 2.80109 15.75 3 15.75H13.5C13.6989 15.75 13.8897 15.671 14.0303 15.5303C14.171 15.3897 14.25 15.1989 14.25 15V10.995C14.25 10.5808 14.5858 10.245 15 10.245C15.4142 10.245 15.75 10.5808 15.75 10.995V15C15.75 15.5967 15.5129 16.169 15.091 16.591C14.669 17.0129 14.0967 17.25 13.5 17.25H3C2.40326 17.25 1.83097 17.0129 1.40901 16.591C0.987053 16.169 0.75 15.5967 0.75 15V4.5C0.75 3.90326 0.987053 3.33097 1.40901 2.90901C1.83097 2.48705 2.40326 2.25 3 2.25H7.005C7.41921 2.25 7.755 2.58579 7.755 3C7.755 3.41421 7.41921 3.75 7.005 3.75H3Z" fill="black"/>
<path fill-rule="evenodd" clip-rule="evenodd" d="M12.9697 0.96967C13.2626 0.676777 13.7374 0.676777 14.0303 0.96967L17.0303 3.96967C17.3232 4.26256 17.3232 4.73744 17.0303 5.03033L9.53033 12.5303C9.38968 12.671 9.19891 12.75 9 12.75H6C5.58579 12.75 5.25 12.4142 5.25 12V9C5.25 8.80109 5.32902 8.61032 5.46967 8.46967L12.9697 0.96967ZM6.75 9.31066V11.25H8.68934L15.4393 4.5L13.5 2.56066L6.75 9.31066Z" fill="black"/>
</g>
<defs>
<clipPath id="clip0_414_10028">
<rect width="18" height="18" fill="white"/>
</clipPath>
</defs>
</svg>
