<svg width="25" height="24" viewBox="0 0 25 24" fill="none" xmlns="http://www.w3.org/2000/svg">
<path d="M20.1875 4.31249C19.7361 3.85811 19.1994 3.4975 18.6081 3.25143C18.0168 3.00535 17.3826 2.87866 16.7422 2.87866C16.1017 2.87866 15.4676 3.00535 14.8763 3.25143C14.285 3.4975 13.7482 3.85811 13.2969 4.31249L11.4406 6.16874C11.3114 6.31141 11.2419 6.49832 11.2466 6.69079C11.2514 6.88325 11.3299 7.06652 11.4661 7.20266C11.6022 7.33879 11.7855 7.41736 11.978 7.4221C12.1704 7.42684 12.3573 7.35738 12.5 7.22811L14.3563 5.37186C14.9904 4.74155 15.8481 4.38776 16.7422 4.38776C17.6363 4.38776 18.494 4.74155 19.1281 5.37186C19.4425 5.68461 19.6919 6.0564 19.8621 6.46585C20.0324 6.87531 20.12 7.31437 20.12 7.7578C20.12 8.20123 20.0324 8.64029 19.8621 9.04975C19.6919 9.4592 19.4425 9.83099 19.1281 10.1437L16.475 12.7969C15.8409 13.4272 14.9831 13.781 14.0891 13.781C13.195 13.781 12.3372 13.4272 11.7031 12.7969C11.6349 12.7216 11.5521 12.6609 11.4597 12.6186C11.3674 12.5763 11.2674 12.5532 11.1658 12.5507C11.0642 12.5482 10.9632 12.5663 10.8689 12.6041C10.7745 12.6418 10.6889 12.6983 10.617 12.7701C10.5452 12.842 10.4887 12.9277 10.4509 13.022C10.4132 13.1163 10.3951 13.2173 10.3976 13.3189C10.4001 13.4205 10.4232 13.5205 10.4655 13.6128C10.5078 13.7052 10.5685 13.788 10.6437 13.8562C11.5578 14.7694 12.797 15.2823 14.0891 15.2823C15.3811 15.2823 16.6203 14.7694 17.5344 13.8562L20.1875 11.2031C20.6419 10.7518 21.0025 10.215 21.2486 9.62368C21.4946 9.03239 21.6213 8.39826 21.6213 7.7578C21.6213 7.11734 21.4946 6.48322 21.2486 5.89192C21.0025 5.30063 20.6419 4.76385 20.1875 4.31249Z" fill="#940000"/>
<path d="M12.5 16.7719L10.6438 18.6281C10.0064 19.2387 9.15532 19.5753 8.27279 19.5658C7.39026 19.5564 6.54655 19.2016 5.92247 18.5775C5.29839 17.9534 4.9436 17.1097 4.93415 16.2272C4.92469 15.3447 5.26132 14.4935 5.87188 13.8562L8.52501 11.2031C9.15911 10.5728 10.0169 10.219 10.9109 10.219C11.805 10.219 12.6628 10.5728 13.2969 11.2031C13.4396 11.3324 13.6265 11.4018 13.8189 11.3971C14.0114 11.3924 14.1947 11.3138 14.3308 11.1777C14.4669 11.0415 14.5455 10.8582 14.5502 10.6658C14.555 10.4733 14.4855 10.2864 14.3563 10.1437C13.4422 9.23062 12.203 8.71771 10.9109 8.71771C9.61891 8.71771 8.37972 9.23062 7.46563 10.1437L4.81251 12.7969C4.33554 13.2437 3.95328 13.7819 3.68848 14.3794C3.42367 14.9769 3.28172 15.6216 3.27106 16.2751C3.26041 16.9286 3.38126 17.5775 3.62644 18.1834C3.87162 18.7892 4.23612 19.3396 4.69827 19.8017C5.16042 20.2639 5.71077 20.6284 6.31662 20.8735C6.92246 21.1187 7.57142 21.2396 8.22491 21.2289C8.8784 21.2183 9.52307 21.0763 10.1206 20.8115C10.7181 20.5467 11.2563 20.1645 11.7031 19.6875L13.5594 17.8312C13.6887 17.6886 13.7581 17.5016 13.7534 17.3092C13.7486 17.1167 13.6701 16.9334 13.5339 16.7973C13.3978 16.6612 13.2145 16.5826 13.0221 16.5779C12.8296 16.5731 12.6427 16.6426 12.5 16.7719Z" fill="#940000"/>
</svg>
