<svg width="40" height="40" viewBox="0 0 40 40" fill="none" xmlns="http://www.w3.org/2000/svg">
<rect width="40" height="40" rx="20" fill="white"/>
<path fill-rule="evenodd" clip-rule="evenodd" d="M9.0929 10.5791C9.25675 10.226 9.61069 10 10 10H30C30.3893 10 30.7433 10.226 30.9071 10.5791C31.071 10.9323 31.015 11.3484 30.7636 11.6457L23 20.8261V29C23 29.3466 22.8206 29.6684 22.5257 29.8507C22.2309 30.0329 21.8628 30.0494 21.5528 29.8944L17.5528 27.8944C17.214 27.725 17 27.3788 17 27V20.8261L9.23644 11.6457C8.98505 11.3484 8.92904 10.9323 9.0929 10.5791ZM12.1553 12L18.7636 19.8143C18.9162 19.9948 19 20.2236 19 20.46V26.382L21 27.382V20.46C21 20.2236 21.0838 19.9948 21.2364 19.8143L27.8447 12H12.1553Z" fill="#B20000"/>
</svg>
