<svg width="20" height="20" viewBox="0 0 20 20" fill="none" xmlns="http://www.w3.org/2000/svg">
<path fill-rule="evenodd" clip-rule="evenodd" d="M4.16667 3.33334C3.94566 3.33334 3.7337 3.42114 3.57742 3.57742C3.42114 3.7337 3.33334 3.94566 3.33334 4.16667V15.8333C3.33334 16.0544 3.42114 16.2663 3.57742 16.4226C3.7337 16.5789 3.94566 16.6667 4.16667 16.6667H7.5C7.96024 16.6667 8.33334 17.0398 8.33334 17.5C8.33334 17.9602 7.96024 18.3333 7.5 18.3333H4.16667C3.50363 18.3333 2.86775 18.0699 2.3989 17.6011C1.93006 17.1323 1.66667 16.4964 1.66667 15.8333V4.16667C1.66667 3.50363 1.93006 2.86775 2.3989 2.3989C2.86775 1.93006 3.50363 1.66667 4.16667 1.66667H7.5C7.96024 1.66667 8.33334 2.03977 8.33334 2.50001C8.33334 2.96024 7.96024 3.33334 7.5 3.33334H4.16667Z" fill="#940000"/>
<path fill-rule="evenodd" clip-rule="evenodd" d="M12.7441 5.24408C13.0695 4.91864 13.5972 4.91864 13.9226 5.24408L18.0893 9.41074C18.4147 9.73618 18.4147 10.2638 18.0893 10.5893L13.9226 14.7559C13.5972 15.0814 13.0695 15.0814 12.7441 14.7559C12.4186 14.4305 12.4186 13.9028 12.7441 13.5774L16.3215 10L12.7441 6.42259C12.4186 6.09715 12.4186 5.56951 12.7441 5.24408Z" fill="#940000"/>
<path fill-rule="evenodd" clip-rule="evenodd" d="M6.66667 10C6.66667 9.53977 7.03977 9.16667 7.50001 9.16667H17.5C17.9602 9.16667 18.3333 9.53977 18.3333 10C18.3333 10.4602 17.9602 10.8333 17.5 10.8333H7.50001C7.03977 10.8333 6.66667 10.4602 6.66667 10Z" fill="#940000"/>
</svg>
