<svg width="25" height="24" viewBox="0 0 25 24" fill="none" xmlns="http://www.w3.org/2000/svg">
<g clip-path="url(#clip0_33_22514)">
<path fill-rule="evenodd" clip-rule="evenodd" d="M1.5 3C2.05228 3 2.5 3.44772 2.5 4V9H7.5C8.05228 9 8.5 9.44772 8.5 10C8.5 10.5523 8.05228 11 7.5 11H1.5C0.947715 11 0.5 10.5523 0.5 10V4C0.5 3.44772 0.947715 3 1.5 3Z" fill="#940000"/>
<path fill-rule="evenodd" clip-rule="evenodd" d="M16.5 14C16.5 13.4477 16.9477 13 17.5 13H23.5C24.0523 13 24.5 13.4477 24.5 14V20C24.5 20.5523 24.0523 21 23.5 21C22.9477 21 22.5 20.5523 22.5 20V15H17.5C16.9477 15 16.5 14.5523 16.5 14Z" fill="#940000"/>
<path fill-rule="evenodd" clip-rule="evenodd" d="M9.72695 2.39617C11.3497 1.9268 13.0648 1.87614 14.7124 2.24893C16.36 2.62171 17.8863 3.40579 19.1489 4.52799C20.4115 5.6502 21.3692 7.07396 21.9327 8.66642C22.117 9.18707 21.8442 9.75849 21.3236 9.94273C20.803 10.127 20.2315 9.85426 20.0473 9.33361C19.5965 8.05964 18.8303 6.92064 17.8202 6.02287C16.8101 5.12511 15.5891 4.49785 14.271 4.19962C12.953 3.90139 11.5808 3.94191 10.2827 4.31741C8.98451 4.69291 7.80262 5.39113 6.84729 6.34694C6.8399 6.35434 6.8324 6.36161 6.82478 6.36877L2.18478 10.7288C1.7823 11.107 1.14944 11.0873 0.77125 10.6848C0.393058 10.2823 0.412747 9.64945 0.815226 9.27126L5.4441 4.92171C6.63627 3.73278 8.1094 2.86405 9.72695 2.39617ZM24.2288 13.3152C24.6069 13.7177 24.5873 14.3506 24.1848 14.7288L19.5559 19.0783C18.3637 20.2673 16.8906 21.136 15.2731 21.6039C13.6503 22.0732 11.9352 22.1239 10.2876 21.7511C8.64003 21.3783 7.11373 20.5942 5.85114 19.472C4.58855 18.3498 3.63081 16.9261 3.06729 15.3336C2.88305 14.813 3.15576 14.2415 3.67641 14.0573C4.19705 13.8731 4.76848 14.1458 4.95272 14.6664C5.40353 15.9404 6.16973 17.0794 7.1798 17.9772C8.18988 18.8749 9.41091 19.5022 10.729 19.8004C12.047 20.0986 13.4192 20.0581 14.7173 19.6826C16.0155 19.3071 17.1974 18.6089 18.1527 17.6531C18.1572 17.6486 18.1616 17.6442 18.1662 17.6399C18.1692 17.637 18.1722 17.6341 18.1752 17.6313L22.8152 13.2713C23.2177 12.8931 23.8506 12.9128 24.2288 13.3152Z" fill="#940000"/>
</g>
<defs>
<clipPath id="clip0_33_22514">
<rect width="24" height="24" fill="white" transform="translate(0.5)"/>
</clipPath>
</defs>
</svg>
