<svg width="25" height="24" viewBox="0 0 25 24" fill="none" xmlns="http://www.w3.org/2000/svg">
<path fill-rule="evenodd" clip-rule="evenodd" d="M4.5 11C5.05228 11 5.5 11.4477 5.5 12V20C5.5 20.2652 5.60536 20.5196 5.79289 20.7071C5.98043 20.8946 6.23478 21 6.5 21H18.5C18.7652 21 19.0196 20.8946 19.2071 20.7071C19.3946 20.5196 19.5 20.2652 19.5 20V12C19.5 11.4477 19.9477 11 20.5 11C21.0523 11 21.5 11.4477 21.5 12V20C21.5 20.7957 21.1839 21.5587 20.6213 22.1213C20.0587 22.6839 19.2957 23 18.5 23H6.5C5.70435 23 4.94129 22.6839 4.37868 22.1213C3.81607 21.5587 3.5 20.7956 3.5 20V12C3.5 11.4477 3.94772 11 4.5 11Z" fill="#940000"/>
<path fill-rule="evenodd" clip-rule="evenodd" d="M11.7929 1.29289C12.1834 0.902369 12.8166 0.902369 13.2071 1.29289L17.2071 5.29289C17.5976 5.68342 17.5976 6.31658 17.2071 6.70711C16.8166 7.09763 16.1834 7.09763 15.7929 6.70711L12.5 3.41421L9.20711 6.70711C8.81658 7.09763 8.18342 7.09763 7.79289 6.70711C7.40237 6.31658 7.40237 5.68342 7.79289 5.29289L11.7929 1.29289Z" fill="#940000"/>
<path fill-rule="evenodd" clip-rule="evenodd" d="M12.5 1C13.0523 1 13.5 1.44772 13.5 2V15C13.5 15.5523 13.0523 16 12.5 16C11.9477 16 11.5 15.5523 11.5 15V2C11.5 1.44772 11.9477 1 12.5 1Z" fill="#940000"/>
</svg>
