<svg width="40" height="40" viewBox="0 0 40 40" fill="none" xmlns="http://www.w3.org/2000/svg">
<rect width="40" height="40" rx="20" fill="#FBEFEF"/>
<path fill-rule="evenodd" clip-rule="evenodd" d="M19 12C15.134 12 12 15.134 12 19C12 22.866 15.134 26 19 26C22.866 26 26 22.866 26 19C26 15.134 22.866 12 19 12ZM10 19C10 14.0294 14.0294 10 19 10C23.9706 10 28 14.0294 28 19C28 23.9706 23.9706 28 19 28C14.0294 28 10 23.9706 10 19Z" fill="#B20000"/>
<path fill-rule="evenodd" clip-rule="evenodd" d="M23.9429 23.9428C24.3334 23.5523 24.9666 23.5523 25.3571 23.9428L29.7071 28.2928C30.0977 28.6833 30.0977 29.3165 29.7071 29.707C29.3166 30.0975 28.6834 30.0975 28.2929 29.707L23.9429 25.357C23.5524 24.9665 23.5524 24.3333 23.9429 23.9428Z" fill="#B20000"/>
</svg>
