<svg width="16" height="16" viewBox="0 0 16 16" fill="none" xmlns="http://www.w3.org/2000/svg">
<path d="M9.75 5.75V5H9C8.73478 5 8.48043 5.10536 8.29289 5.29289C8.10536 5.48043 8 5.73478 8 6V10C8 10.2652 8.10536 10.5196 8.29289 10.7071C8.48043 10.8946 8.73478 11 9 11H9.75V10.25C9.75 9.98478 9.85536 9.73043 10.0429 9.54289C10.2304 9.35536 10.4848 9.25 10.75 9.25H13.25C13.5152 9.25 13.7696 9.35536 13.9571 9.54289C14.1446 9.73043 14.25 9.98478 14.25 10.25V12.75C14.25 13.0152 14.1446 13.2696 13.9571 13.4571C13.7696 13.6446 13.5152 13.75 13.25 13.75H10.75C10.4848 13.75 10.2304 13.6446 10.0429 13.4571C9.85536 13.2696 9.75 13.0152 9.75 12.75V12H9C8.47007 11.9984 7.96232 11.7871 7.58761 11.4124C7.21289 11.0377 7.00165 10.5299 7 10V8.5H5.25V9C5.25 9.26522 5.14464 9.51957 4.95711 9.70711C4.76957 9.89464 4.51522 10 4.25 10H2.25C1.98478 10 1.73043 9.89464 1.54289 9.70711C1.35536 9.51957 1.25 9.26522 1.25 9V7C1.25 6.73478 1.35536 6.48043 1.54289 6.29289C1.73043 6.10536 1.98478 6 2.25 6H4.25C4.51522 6 4.76957 6.10536 4.95711 6.29289C5.14464 6.48043 5.25 6.73478 5.25 7V7.5H7V6C7.00165 5.47007 7.21289 4.96232 7.58761 4.58761C7.96232 4.21289 8.47007 4.00165 9 4H9.75V3.25C9.75 2.98478 9.85536 2.73043 10.0429 2.54289C10.2304 2.35536 10.4848 2.25 10.75 2.25H13.25C13.5152 2.25 13.7696 2.35536 13.9571 2.54289C14.1446 2.73043 14.25 2.98478 14.25 3.25V5.75C14.25 6.01522 14.1446 6.26957 13.9571 6.45711C13.7696 6.64464 13.5152 6.75 13.25 6.75H10.75C10.4848 6.75 10.2304 6.64464 10.0429 6.45711C9.85536 6.26957 9.75 6.01522 9.75 5.75Z" fill="white"/>
</svg>
