<svg width="24" height="24" viewBox="0 0 24 24" fill="none" xmlns="http://www.w3.org/2000/svg">
<path d="M13.125 12C13.125 12.2225 13.059 12.44 12.9354 12.625C12.8118 12.81 12.6361 12.9542 12.4305 13.0394C12.225 13.1245 11.9988 13.1468 11.7805 13.1034C11.5623 13.06 11.3618 12.9528 11.2045 12.7955C11.0472 12.6382 10.94 12.4377 10.8966 12.2195C10.8532 12.0012 10.8755 11.775 10.9606 11.5695C11.0458 11.3639 11.19 11.1882 11.375 11.0646C11.56 10.941 11.7775 10.875 12 10.875C12.2984 10.875 12.5845 10.9935 12.7955 11.2045C13.0065 11.4155 13.125 11.7016 13.125 12ZM18 10.875C17.7775 10.875 17.56 10.941 17.375 11.0646C17.19 11.1882 17.0458 11.3639 16.9606 11.5695C16.8755 11.775 16.8532 12.0012 16.8966 12.2195C16.94 12.4377 17.0472 12.6382 17.2045 12.7955C17.3618 12.9528 17.5623 13.06 17.7805 13.1034C17.9988 13.1468 18.225 13.1245 18.4305 13.0394C18.6361 12.9542 18.8118 12.81 18.9354 12.625C19.059 12.44 19.125 12.2225 19.125 12C19.125 11.7016 19.0065 11.4155 18.7955 11.2045C18.5845 10.9935 18.2984 10.875 18 10.875ZM6 10.875C5.7775 10.875 5.55999 10.941 5.37498 11.0646C5.18998 11.1882 5.04578 11.3639 4.96064 11.5695C4.87549 11.775 4.85321 12.0012 4.89662 12.2195C4.94003 12.4377 5.04717 12.6382 5.20451 12.7955C5.36184 12.9528 5.5623 13.06 5.78052 13.1034C5.99875 13.1468 6.22495 13.1245 6.43052 13.0394C6.63609 12.9542 6.81179 12.81 6.9354 12.625C7.05902 12.44 7.125 12.2225 7.125 12C7.125 11.7016 7.00647 11.4155 6.7955 11.2045C6.58452 10.9935 6.29837 10.875 6 10.875Z" fill="black"/>
</svg>
