<svg width="20" height="20" viewBox="0 0 20 20" fill="none" xmlns="http://www.w3.org/2000/svg">
<path fill-rule="evenodd" clip-rule="evenodd" d="M1.66667 5.00001C1.66667 4.53977 2.03977 4.16667 2.50001 4.16667H17.5C17.9602 4.16667 18.3333 4.53977 18.3333 5.00001C18.3333 5.46024 17.9602 5.83334 17.5 5.83334H2.50001C2.03977 5.83334 1.66667 5.46024 1.66667 5.00001Z" fill="black"/>
<path fill-rule="evenodd" clip-rule="evenodd" d="M8.33333 2.49999C8.11231 2.49999 7.90035 2.58779 7.74407 2.74407C7.58779 2.90035 7.49999 3.11231 7.49999 3.33333V4.16666H12.5V3.33333C12.5 3.11231 12.4122 2.90035 12.2559 2.74407C12.0996 2.58779 11.8877 2.49999 11.6667 2.49999H8.33333ZM14.1667 4.16666V3.33333C14.1667 2.67029 13.9033 2.0344 13.4344 1.56556C12.9656 1.09672 12.3297 0.833328 11.6667 0.833328H8.33333C7.67029 0.833328 7.0344 1.09672 6.56556 1.56556C6.09672 2.0344 5.83333 2.67029 5.83333 3.33333V4.16666H4.16666C3.70642 4.16666 3.33333 4.53976 3.33333 4.99999V16.6667C3.33333 17.3297 3.59672 17.9656 4.06556 18.4344C4.5344 18.9033 5.17029 19.1667 5.83333 19.1667H14.1667C14.8297 19.1667 15.4656 18.9033 15.9344 18.4344C16.4033 17.9656 16.6667 17.3297 16.6667 16.6667V4.99999C16.6667 4.53976 16.2936 4.16666 15.8333 4.16666H14.1667ZM4.99999 5.83333V16.6667C4.99999 16.8877 5.08779 17.0996 5.24407 17.2559C5.40035 17.4122 5.61231 17.5 5.83333 17.5H14.1667C14.3877 17.5 14.5996 17.4122 14.7559 17.2559C14.9122 17.0996 15 16.8877 15 16.6667V5.83333H4.99999Z" fill="black"/>
<path fill-rule="evenodd" clip-rule="evenodd" d="M8.33333 8.33333C8.79357 8.33333 9.16667 8.70642 9.16667 9.16666V14.1667C9.16667 14.6269 8.79357 15 8.33333 15C7.8731 15 7.5 14.6269 7.5 14.1667V9.16666C7.5 8.70642 7.8731 8.33333 8.33333 8.33333Z" fill="black"/>
<path fill-rule="evenodd" clip-rule="evenodd" d="M11.6667 8.33333C12.1269 8.33333 12.5 8.70642 12.5 9.16666V14.1667C12.5 14.6269 12.1269 15 11.6667 15C11.2064 15 10.8333 14.6269 10.8333 14.1667V9.16666C10.8333 8.70642 11.2064 8.33333 11.6667 8.33333Z" fill="black"/>
</svg>
