<svg width="7" height="12" viewBox="0 0 7 12" fill="none" xmlns="http://www.w3.org/2000/svg">
<path d="M6.97961 6.00941C6.98 6.20933 6.90965 6.40308 6.78076 6.55703L2.45796 11.6909C2.31121 11.8656 2.10033 11.9755 1.87172 11.9964C1.64311 12.0172 1.41549 11.9474 1.23893 11.8021C1.06237 11.6569 0.951341 11.4482 0.930264 11.2219C0.909186 10.9957 0.979787 10.7704 1.12654 10.5957L4.99976 6.00941L1.26487 1.42315C1.19305 1.33563 1.13942 1.23492 1.10706 1.12682C1.0747 1.01872 1.06424 0.905356 1.07629 0.793242C1.08834 0.681129 1.12266 0.572476 1.17728 0.473533C1.2319 0.374588 1.30574 0.287303 1.39455 0.216692C1.48345 0.138332 1.58773 0.0789862 1.70088 0.0423708C1.81403 0.00575544 1.9336 -0.00733851 2.0521 0.00390722C2.1706 0.0151529 2.28547 0.0504961 2.38953 0.107724C2.49359 0.164953 2.58458 0.242833 2.65681 0.336484L6.83263 5.47036C6.94115 5.62872 6.99289 5.81852 6.97961 6.00941Z" fill="#313131" fill-opacity="0.5"/>
</svg>
