<svg width="25" height="25" viewBox="0 0 25 25" fill="none" xmlns="http://www.w3.org/2000/svg">
<path d="M19.6949 21.5H15.0543C15.837 20.8055 16.573 20.0602 17.2574 19.2687C19.8356 16.3156 21.1949 13.1938 21.1949 10.25C21.1949 8.06196 20.3258 5.96354 18.7786 4.41637C17.2314 2.86919 15.133 2 12.9449 2C10.7569 2 8.65849 2.86919 7.11132 4.41637C5.56414 5.96354 4.69495 8.06196 4.69495 10.25C4.69495 13.1938 6.05432 16.3156 8.63245 19.2687C9.31692 20.0602 10.0529 20.8055 10.8356 21.5H6.19495C5.99603 21.5 5.80527 21.579 5.66462 21.7197C5.52396 21.8603 5.44495 22.0511 5.44495 22.25C5.44495 22.4489 5.52396 22.6397 5.66462 22.7803C5.80527 22.921 5.99603 23 6.19495 23H19.6949C19.8939 23 20.0846 22.921 20.2253 22.7803C20.3659 22.6397 20.4449 22.4489 20.4449 22.25C20.4449 22.0511 20.3659 21.8603 20.2253 21.7197C20.0846 21.579 19.8939 21.5 19.6949 21.5ZM12.9449 7.25C13.5383 7.25 14.1183 7.42595 14.6117 7.75559C15.105 8.08524 15.4895 8.55377 15.7166 9.10195C15.9436 9.65013 16.0031 10.2533 15.8873 10.8353C15.7715 11.4172 15.4858 11.9518 15.0663 12.3713C14.6467 12.7909 14.1122 13.0766 13.5302 13.1924C12.9483 13.3081 12.3451 13.2487 11.7969 13.0216C11.2487 12.7946 10.7802 12.4101 10.4505 11.9167C10.1209 11.4234 9.94495 10.8433 9.94495 10.25C9.94495 9.45435 10.261 8.69129 10.8236 8.12868C11.3862 7.56607 12.1493 7.25 12.9449 7.25Z" fill="#940000"/>
</svg>
