<svg width="25" height="25" viewBox="0 0 25 25" fill="none" xmlns="http://www.w3.org/2000/svg">
<path d="M6.75142 13.3003C6.75272 13.4409 6.73358 13.5804 6.69514 13.7106C6.65669 13.8408 6.59971 13.9591 6.52756 14.0585C6.45541 14.1579 6.36955 14.2364 6.27503 14.2894C6.18051 14.3424 6.07926 14.3687 5.97723 14.3669H1.71917C1.57534 14.3653 1.43454 14.3099 1.31181 14.2066C1.18908 14.1032 1.08905 13.9559 1.0224 13.7803C0.96042 13.6015 0.934885 13.4028 0.948521 13.2055C0.962158 13.0083 1.01445 12.8198 1.09982 12.6603C1.78496 11.3932 2.69921 10.3956 3.75142 9.76707C3.29929 9.19685 2.95191 8.48686 2.73786 7.69552C2.52382 6.90418 2.44923 6.05412 2.52025 5.2153C2.59126 4.37649 2.80585 3.5729 3.14634 2.87067C3.48683 2.16845 3.9435 1.58766 4.47875 1.17612C5.014 0.764579 5.61254 0.534045 6.2251 0.503492C6.83766 0.472939 7.44673 0.643241 8.00218 1.00038C8.55763 1.35752 9.04358 1.89129 9.42004 2.55776C9.79649 3.22422 10.0527 4.00433 10.1675 4.83388C10.1962 5.04993 10.1763 5.27287 10.1106 5.47298C10.0449 5.67308 9.93649 5.84082 9.7998 5.95384C8.54816 6.97642 7.59621 8.57102 7.10948 10.4604C6.86955 11.3705 6.74833 12.332 6.75142 13.3003V13.3003ZM24.7901 12.6603C24.105 11.3932 23.1907 10.3956 22.1385 9.76707C22.5906 9.19685 22.938 8.48686 23.1521 7.69552C23.3661 6.90418 23.4407 6.05412 23.3697 5.2153C23.2987 4.37649 23.0841 3.5729 22.7436 2.87067C22.4031 2.16845 21.9464 1.58766 21.4112 1.17612C20.8759 0.764579 20.2774 0.534045 19.6648 0.503492C19.0523 0.472939 18.4432 0.643241 17.8877 1.00038C17.3323 1.35752 16.8463 1.89129 16.4699 2.55776C16.0934 3.22422 15.8372 4.00433 15.7224 4.83388C15.6937 5.04993 15.7136 5.27287 15.7793 5.47298C15.845 5.67308 15.9534 5.84082 16.0901 5.95384C17.3434 6.9738 18.2959 8.56932 18.7804 10.4604C19.0204 11.3705 19.1416 12.332 19.1385 13.3003C19.1372 13.4409 19.1563 13.5804 19.1948 13.7106C19.2332 13.8408 19.2902 13.9591 19.3624 14.0585C19.4345 14.1579 19.5204 14.2364 19.6149 14.2894C19.7094 14.3424 19.8107 14.3687 19.9127 14.3669H24.1708C24.3145 14.3669 24.4555 14.3118 24.5778 14.2076C24.7001 14.1035 24.7989 13.9545 24.8632 13.7773C24.9275 13.6001 24.9547 13.4018 24.9418 13.2045C24.9289 13.0072 24.8764 12.8188 24.7901 12.6603ZM15.7708 18.3802C16.5413 17.5665 17.1074 16.4407 17.3896 15.161C17.6717 13.8812 17.6558 12.5119 17.344 11.2452C17.0322 9.97859 16.4402 8.87838 15.6512 8.09917C14.8621 7.31996 13.9157 6.90092 12.945 6.90092C11.9742 6.90092 11.0278 7.31996 10.2388 8.09917C9.44973 8.87838 8.85772 9.97859 8.54592 11.2452C8.23412 12.5119 8.21819 13.8812 8.50037 15.161C8.78255 16.4407 9.34866 17.5665 10.1192 18.3802C8.61387 19.3009 7.3935 20.9256 6.674 22.9667C6.61675 23.1289 6.59111 23.3089 6.5996 23.4888C6.60808 23.6688 6.6504 23.8427 6.72239 23.9933C6.78939 24.1479 6.88437 24.2758 6.99802 24.3646C7.11168 24.4534 7.24011 24.5001 7.37078 24.5H18.5191C18.6498 24.5001 18.7782 24.4534 18.8919 24.3646C19.0056 24.2758 19.1005 24.1479 19.1675 23.9933C19.2395 23.8427 19.2818 23.6688 19.2903 23.4888C19.2988 23.3089 19.2732 23.1289 19.2159 22.9667C18.4964 20.9256 17.2761 19.3009 15.7708 18.3802Z" fill="#940000"/>
</svg>
