<svg width="25" height="25" viewBox="0 0 25 25" fill="none" xmlns="http://www.w3.org/2000/svg">
<path d="M19.6949 16.25C19.03 16.2513 18.3842 16.4727 17.8584 16.8798C17.3326 17.2868 16.9565 17.8566 16.7887 18.5H7.69495C6.8993 18.5 6.13623 18.1839 5.57363 17.6213C5.01102 17.0587 4.69495 16.2956 4.69495 15.5C4.69495 14.7044 5.01102 13.9413 5.57363 13.3787C6.13623 12.8161 6.8993 12.5 7.69495 12.5H16.6949C17.6895 12.5 18.6433 12.1049 19.3466 11.4017C20.0499 10.6984 20.4449 9.74456 20.4449 8.75C20.4449 7.75544 20.0499 6.80161 19.3466 6.09835C18.6433 5.39509 17.6895 5 16.6949 5H7.69495C7.49603 5 7.30527 5.07902 7.16462 5.21967C7.02396 5.36032 6.94495 5.55109 6.94495 5.75C6.94495 5.94891 7.02396 6.13968 7.16462 6.28033C7.30527 6.42098 7.49603 6.5 7.69495 6.5H16.6949C17.2917 6.5 17.864 6.73705 18.2859 7.15901C18.7079 7.58097 18.9449 8.15326 18.9449 8.75C18.9449 9.34674 18.7079 9.91903 18.2859 10.341C17.864 10.7629 17.2917 11 16.6949 11H7.69495C6.50147 11 5.35688 11.4741 4.51297 12.318C3.66905 13.1619 3.19495 14.3065 3.19495 15.5C3.19495 16.6935 3.66905 17.8381 4.51297 18.682C5.35688 19.5259 6.50147 20 7.69495 20H16.7887C16.929 20.5432 17.2187 21.0362 17.6251 21.423C18.0315 21.8098 18.5382 22.0749 19.0877 22.1882C19.6372 22.3015 20.2074 22.2584 20.7336 22.0639C21.2599 21.8694 21.721 21.5312 22.0647 21.0877C22.4084 20.6443 22.6208 20.1133 22.6779 19.5552C22.7349 18.9971 22.6344 18.4341 22.3876 17.9303C22.1408 17.4265 21.7576 17.0019 21.2817 16.7049C20.8057 16.4079 20.256 16.2503 19.6949 16.25Z" fill="#940000"/>
</svg>
