<svg width="30" height="30" viewBox="0 0 30 30" fill="none" xmlns="http://www.w3.org/2000/svg">
<path d="M15 13.3056C17.9981 13.3056 20.4286 10.8182 20.4286 7.75C20.4286 4.68175 17.9981 2.19444 15 2.19444C12.0019 2.19444 9.57144 4.68175 9.57144 7.75C9.57144 10.8182 12.0019 13.3056 15 13.3056Z" fill="#636363"/>
<path d="M24.5 22.25V23.6389C24.5 24.744 24.071 25.8038 23.3075 26.5852C22.544 27.3666 21.5084 27.8056 20.4286 27.8056H9.57143C8.49162 27.8056 7.45604 27.3666 6.6925 26.5852C5.92895 25.8038 5.5 24.744 5.5 23.6389V22.25C5.5 20.4082 6.21492 18.6419 7.48749 17.3395C8.76006 16.0372 10.486 15.3056 12.2857 15.3056H17.7143C19.514 15.3056 21.2399 16.0372 22.5125 17.3395C23.7851 18.6419 24.5 20.4082 24.5 22.25V22.25Z" fill="#636363"/>
</svg>
