<svg width="40" height="40" viewBox="0 0 40 40" fill="none" xmlns="http://www.w3.org/2000/svg">
<rect width="40" height="40" rx="20" fill="#FBEFEF"/>
<path d="M24.5 23C23.9998 22.9992 23.5045 23.0992 23.0439 23.2941C22.5832 23.489 22.1665 23.7748 21.8188 24.1344L17.4969 21.3594C17.8342 20.4845 17.8342 19.5155 17.4969 18.6406L21.8188 15.8656C22.4267 16.4874 23.232 16.8786 24.0966 16.9721C24.9612 17.0657 25.8314 16.8558 26.5583 16.3785C27.2853 15.9012 27.8237 15.186 28.0815 14.3554C28.3392 13.5249 28.3003 12.6305 27.9714 11.8255C27.6424 11.0204 27.0439 10.3548 26.2783 9.94236C25.5126 9.52996 24.6275 9.39649 23.7742 9.5648C22.921 9.73311 22.1528 10.1927 21.6012 10.865C21.0495 11.5372 20.7486 12.3804 20.75 13.25C20.7515 13.7147 20.8373 14.1753 21.0031 14.6094L16.6813 17.3844C16.1609 16.8498 15.493 16.4826 14.7628 16.3296C14.0327 16.1767 13.2735 16.245 12.5824 16.5258C11.8913 16.8067 11.2996 17.2872 10.8831 17.9061C10.4666 18.525 10.2441 19.254 10.2441 20C10.2441 20.746 10.4666 21.475 10.8831 22.0939C11.2996 22.7128 11.8913 23.1933 12.5824 23.4742C13.2735 23.755 14.0327 23.8233 14.7628 23.6704C15.493 23.5174 16.1609 23.1502 16.6813 22.6156L21.0031 25.3906C20.8373 25.8247 20.7515 26.2853 20.75 26.75C20.75 27.4917 20.9699 28.2167 21.382 28.8334C21.794 29.4501 22.3797 29.9307 23.0649 30.2145C23.7502 30.4984 24.5042 30.5726 25.2316 30.4279C25.959 30.2833 26.6272 29.9261 27.1517 29.4017C27.6761 28.8772 28.0333 28.209 28.1779 27.4816C28.3226 26.7542 28.2484 26.0002 27.9645 25.3149C27.6807 24.6297 27.2001 24.044 26.5834 23.632C25.9667 23.2199 25.2417 23 24.5 23Z" fill="#940000"/>
</svg>
