<svg width="50" height="50" viewBox="0 0 50 50" fill="none" xmlns="http://www.w3.org/2000/svg">
<path d="M25 32.0195C24.6968 32.2149 24.3839 32.3948 24.0625 32.5586V37.1875C24.0625 37.4361 24.1613 37.6746 24.3371 37.8504C24.5129 38.0262 24.7514 38.125 25 38.125C25.2486 38.125 25.4871 38.0262 25.6629 37.8504C25.8387 37.6746 25.9375 37.4361 25.9375 37.1875V32.5586C25.6161 32.3948 25.3032 32.2149 25 32.0195V32.0195Z" fill="white"/>
<path d="M33.2149 17.336C32.5367 15.7167 31.3951 14.334 29.9335 13.3616C28.4719 12.3891 26.7556 11.8703 25 11.8703C23.2445 11.8703 21.5281 12.3891 20.0665 13.3616C18.605 14.334 17.4634 15.7167 16.7852 17.336C15.3259 18.0122 14.0893 19.0898 13.2198 20.4428C12.3503 21.7958 11.8839 23.3683 11.875 24.9766C11.8633 29.5235 15.5547 33.3203 20.0899 33.4375C21.466 33.4735 22.83 33.1717 24.0625 32.5586V28.3867L18.9532 25.8438C18.7294 25.7319 18.5592 25.5357 18.4801 25.2983C18.4409 25.1808 18.4253 25.0567 18.4341 24.9332C18.4428 24.8096 18.4759 24.689 18.5313 24.5782C18.5867 24.4673 18.6634 24.3685 18.7569 24.2874C18.8505 24.2062 18.9592 24.1443 19.0767 24.1051C19.3141 24.026 19.5731 24.0444 19.7969 24.1563L24.0625 26.3008V20.3125C24.0625 20.0639 24.1613 19.8254 24.3371 19.6496C24.5129 19.4738 24.7514 19.375 25 19.375C25.2487 19.375 25.4871 19.4738 25.6629 19.6496C25.8388 19.8254 25.9375 20.0639 25.9375 20.3125V23.4883L30.2032 21.3438C30.4269 21.2319 30.686 21.2135 30.9233 21.2926C31.1607 21.3717 31.3569 21.5419 31.4688 21.7657C31.5807 21.9894 31.5991 22.2485 31.52 22.4858C31.4408 22.7232 31.2707 22.9194 31.0469 23.0313L25.9375 25.5742V32.5586C27.103 33.1368 28.3865 33.4376 29.6875 33.4375H29.9102C34.4453 33.3203 38.1367 29.5235 38.125 24.9766C38.1162 23.3683 37.6497 21.7958 36.7802 20.4428C35.9107 19.0898 34.6741 18.0122 33.2149 17.336V17.336Z" fill="white"/>
</svg>
